<?xml version="1.0" encoding="us-ascii" standalone="no"?><svg xmlns="http://www.w3.org/2000/svg" xmlns:xlink="http://www.w3.org/1999/xlink" contentStyleType="text/css" height="756px" preserveAspectRatio="none" style="width:1734px;height:756px;background:#FFFFFF;" version="1.1" viewBox="0 0 1734 756" width="1734px" zoomAndPan="magnify"><defs/><g><!--class InvestmentService--><g id="elem_InvestmentService"><rect codeLine="2" fill="#F1F1F1" height="83.2188" id="InvestmentService" rx="2.5" ry="2.5" style="stroke:#181818;stroke-width:0.5;" width="466" x="417.5" y="373.5"/><ellipse cx="588.75" cy="389.5" fill="#ADD1B2" rx="11" ry="11" style="stroke:#181818;stroke-width:1.0;"/><path d="M591.5156,385.375 Q591.6719,385.1563 591.8594,385.0469 Q592.0469,384.9375 592.2656,384.9375 Q592.6406,384.9375 592.875,385.2031 Q593.1094,385.4531 593.1094,386.0625 L593.1094,387.5156 Q593.1094,388.125 592.875,388.3906 Q592.6406,388.6563 592.2656,388.6563 Q591.9219,388.6563 591.7188,388.4531 Q591.5156,388.2656 591.4063,387.75 Q591.3594,387.3906 591.1719,387.2031 Q590.8438,386.8281 590.2344,386.6094 Q589.625,386.3906 589,386.3906 Q588.2344,386.3906 587.5938,386.7188 Q586.9688,387.0469 586.4688,387.7969 Q585.9844,388.5469 585.9844,389.5781 L585.9844,390.6719 Q585.9844,391.9063 586.875,392.7344 Q587.7656,393.5469 589.3594,393.5469 Q590.2969,393.5469 590.9531,393.2969 Q591.3438,393.1406 591.7656,392.7031 Q592.0313,392.4375 592.1719,392.3594 Q592.3281,392.2813 592.5313,392.2813 Q592.8594,392.2813 593.1094,392.5469 Q593.375,392.7969 593.375,393.1406 Q593.375,393.4844 593.0313,393.8906 Q592.5313,394.4688 591.7344,394.7969 Q590.6563,395.25 589.3594,395.25 Q587.8438,395.25 586.6406,394.625 Q585.6563,394.125 584.9688,393.0625 Q584.2813,391.9844 584.2813,390.7031 L584.2813,389.5469 Q584.2813,388.2188 584.8906,387.0781 Q585.5156,385.9219 586.6094,385.3125 Q587.7031,384.6875 588.9375,384.6875 Q589.6719,384.6875 590.3125,384.8594 Q590.9688,385.0156 591.5156,385.375 Z " fill="#000000"/><text fill="#000000" font-family="sans-serif" font-size="14" lengthAdjust="spacing" textLength="115" x="609.25" y="395.2285">InvestmentService</text><line style="stroke:#181818;stroke-width:0.5;" x1="418.5" x2="882.5" y1="405.5" y2="405.5"/><ellipse cx="428.5" cy="419.8047" fill="none" rx="3" ry="3" style="stroke:#038048;stroke-width:1.0;"/><text fill="#000000" font-family="sans-serif" font-size="14" lengthAdjust="spacing" textLength="409" x="437.5" y="424.0332">annualInvestmentResults: signal&lt;InvestmentResult[] | undefined&gt;</text><line style="stroke:#181818;stroke-width:0.5;" x1="418.5" x2="882.5" y1="431.1094" y2="431.1094"/><ellipse cx="428.5" cy="445.4141" fill="#84BE84" rx="3" ry="3" style="stroke:#038048;stroke-width:1.0;"/><text fill="#000000" font-family="sans-serif" font-size="14" lengthAdjust="spacing" textLength="440" x="437.5" y="449.6426">onCalculateInvestmentResults(investmentInput: InvestmentInput): void</text></g><!--class AppComponent--><g id="elem_AppComponent"><rect codeLine="7" fill="#F1F1F1" height="48" id="AppComponent" rx="2.5" ry="2.5" style="stroke:#181818;stroke-width:0.5;" width="130" x="1199.5" y="7"/><ellipse cx="1214.5" cy="23" fill="#ADD1B2" rx="11" ry="11" style="stroke:#181818;stroke-width:1.0;"/><path d="M1217.2656,18.875 Q1217.4219,18.6563 1217.6094,18.5469 Q1217.7969,18.4375 1218.0156,18.4375 Q1218.3906,18.4375 1218.625,18.7031 Q1218.8594,18.9531 1218.8594,19.5625 L1218.8594,21.0156 Q1218.8594,21.625 1218.625,21.8906 Q1218.3906,22.1563 1218.0156,22.1563 Q1217.6719,22.1563 1217.4688,21.9531 Q1217.2656,21.7656 1217.1563,21.25 Q1217.1094,20.8906 1216.9219,20.7031 Q1216.5938,20.3281 1215.9844,20.1094 Q1215.375,19.8906 1214.75,19.8906 Q1213.9844,19.8906 1213.3438,20.2188 Q1212.7188,20.5469 1212.2188,21.2969 Q1211.7344,22.0469 1211.7344,23.0781 L1211.7344,24.1719 Q1211.7344,25.4063 1212.625,26.2344 Q1213.5156,27.0469 1215.1094,27.0469 Q1216.0469,27.0469 1216.7031,26.7969 Q1217.0938,26.6406 1217.5156,26.2031 Q1217.7813,25.9375 1217.9219,25.8594 Q1218.0781,25.7813 1218.2813,25.7813 Q1218.6094,25.7813 1218.8594,26.0469 Q1219.125,26.2969 1219.125,26.6406 Q1219.125,26.9844 1218.7813,27.3906 Q1218.2813,27.9688 1217.4844,28.2969 Q1216.4063,28.75 1215.1094,28.75 Q1213.5938,28.75 1212.3906,28.125 Q1211.4063,27.625 1210.7188,26.5625 Q1210.0313,25.4844 1210.0313,24.2031 L1210.0313,23.0469 Q1210.0313,21.7188 1210.6406,20.5781 Q1211.2656,19.4219 1212.3594,18.8125 Q1213.4531,18.1875 1214.6875,18.1875 Q1215.4219,18.1875 1216.0625,18.3594 Q1216.7188,18.5156 1217.2656,18.875 Z " fill="#000000"/><text fill="#000000" font-family="sans-serif" font-size="14" lengthAdjust="spacing" textLength="98" x="1228.5" y="28.7285">AppComponent</text><line style="stroke:#181818;stroke-width:0.5;" x1="1200.5" x2="1328.5" y1="39" y2="39"/><line style="stroke:#181818;stroke-width:0.5;" x1="1200.5" x2="1328.5" y1="47" y2="47"/></g><!--class UserInputComponent--><g id="elem_UserInputComponent"><rect codeLine="10" fill="#F1F1F1" height="83.2188" id="UserInputComponent" rx="2.5" ry="2.5" style="stroke:#181818;stroke-width:0.5;" width="285" x="508" y="142"/><ellipse cx="579.75" cy="158" fill="#ADD1B2" rx="11" ry="11" style="stroke:#181818;stroke-width:1.0;"/><path d="M582.5156,153.875 Q582.6719,153.6563 582.8594,153.5469 Q583.0469,153.4375 583.2656,153.4375 Q583.6406,153.4375 583.875,153.7031 Q584.1094,153.9531 584.1094,154.5625 L584.1094,156.0156 Q584.1094,156.625 583.875,156.8906 Q583.6406,157.1563 583.2656,157.1563 Q582.9219,157.1563 582.7188,156.9531 Q582.5156,156.7656 582.4063,156.25 Q582.3594,155.8906 582.1719,155.7031 Q581.8438,155.3281 581.2344,155.1094 Q580.625,154.8906 580,154.8906 Q579.2344,154.8906 578.5938,155.2188 Q577.9688,155.5469 577.4688,156.2969 Q576.9844,157.0469 576.9844,158.0781 L576.9844,159.1719 Q576.9844,160.4063 577.875,161.2344 Q578.7656,162.0469 580.3594,162.0469 Q581.2969,162.0469 581.9531,161.7969 Q582.3438,161.6406 582.7656,161.2031 Q583.0313,160.9375 583.1719,160.8594 Q583.3281,160.7813 583.5313,160.7813 Q583.8594,160.7813 584.1094,161.0469 Q584.375,161.2969 584.375,161.6406 Q584.375,161.9844 584.0313,162.3906 Q583.5313,162.9688 582.7344,163.2969 Q581.6563,163.75 580.3594,163.75 Q578.8438,163.75 577.6406,163.125 Q576.6563,162.625 575.9688,161.5625 Q575.2813,160.4844 575.2813,159.2031 L575.2813,158.0469 Q575.2813,156.7188 575.8906,155.5781 Q576.5156,154.4219 577.6094,153.8125 Q578.7031,153.1875 579.9375,153.1875 Q580.6719,153.1875 581.3125,153.3594 Q581.9688,153.5156 582.5156,153.875 Z " fill="#000000"/><text fill="#000000" font-family="sans-serif" font-size="14" lengthAdjust="spacing" textLength="133" x="600.25" y="163.7285">UserInputComponent</text><line style="stroke:#181818;stroke-width:0.5;" x1="509" x2="792" y1="174" y2="174"/><ellipse cx="519" cy="188.3047" fill="none" rx="3" ry="3" style="stroke:#038048;stroke-width:1.0;"/><text fill="#000000" font-family="sans-serif" font-size="14" lengthAdjust="spacing" textLength="259" x="528" y="192.5332">investmentInput: signal&lt;InvestmentInput&gt;</text><line style="stroke:#181818;stroke-width:0.5;" x1="509" x2="792" y1="199.6094" y2="199.6094"/><ellipse cx="519" cy="213.9141" fill="#84BE84" rx="3" ry="3" style="stroke:#038048;stroke-width:1.0;"/><text fill="#000000" font-family="sans-serif" font-size="14" lengthAdjust="spacing" textLength="103" x="528" y="218.1426">onSubmit(): void</text></g><!--class InvestmentResultsComponent--><g id="elem_InvestmentResultsComponent"><rect codeLine="15" fill="#F1F1F1" height="65.6094" id="InvestmentResultsComponent" rx="2.5" ry="2.5" style="stroke:#181818;stroke-width:0.5;" width="460" x="875.5" y="150.5"/><ellipse cx="1007.25" cy="166.5" fill="#ADD1B2" rx="11" ry="11" style="stroke:#181818;stroke-width:1.0;"/><path d="M1010.0156,162.375 Q1010.1719,162.1563 1010.3594,162.0469 Q1010.5469,161.9375 1010.7656,161.9375 Q1011.1406,161.9375 1011.375,162.2031 Q1011.6094,162.4531 1011.6094,163.0625 L1011.6094,164.5156 Q1011.6094,165.125 1011.375,165.3906 Q1011.1406,165.6563 1010.7656,165.6563 Q1010.4219,165.6563 1010.2188,165.4531 Q1010.0156,165.2656 1009.9063,164.75 Q1009.8594,164.3906 1009.6719,164.2031 Q1009.3438,163.8281 1008.7344,163.6094 Q1008.125,163.3906 1007.5,163.3906 Q1006.7344,163.3906 1006.0938,163.7188 Q1005.4688,164.0469 1004.9688,164.7969 Q1004.4844,165.5469 1004.4844,166.5781 L1004.4844,167.6719 Q1004.4844,168.9063 1005.375,169.7344 Q1006.2656,170.5469 1007.8594,170.5469 Q1008.7969,170.5469 1009.4531,170.2969 Q1009.8438,170.1406 1010.2656,169.7031 Q1010.5313,169.4375 1010.6719,169.3594 Q1010.8281,169.2813 1011.0313,169.2813 Q1011.3594,169.2813 1011.6094,169.5469 Q1011.875,169.7969 1011.875,170.1406 Q1011.875,170.4844 1011.5313,170.8906 Q1011.0313,171.4688 1010.2344,171.7969 Q1009.1563,172.25 1007.8594,172.25 Q1006.3438,172.25 1005.1406,171.625 Q1004.1563,171.125 1003.4688,170.0625 Q1002.7813,168.9844 1002.7813,167.7031 L1002.7813,166.5469 Q1002.7813,165.2188 1003.3906,164.0781 Q1004.0156,162.9219 1005.1094,162.3125 Q1006.2031,161.6875 1007.4375,161.6875 Q1008.1719,161.6875 1008.8125,161.8594 Q1009.4688,162.0156 1010.0156,162.375 Z " fill="#000000"/><text fill="#000000" font-family="sans-serif" font-size="14" lengthAdjust="spacing" textLength="188" x="1027.75" y="172.2285">InvestmentResultsComponent</text><line style="stroke:#181818;stroke-width:0.5;" x1="876.5" x2="1334.5" y1="182.5" y2="182.5"/><ellipse cx="886.5" cy="196.8047" fill="none" rx="3" ry="3" style="stroke:#038048;stroke-width:1.0;"/><text fill="#000000" font-family="sans-serif" font-size="14" lengthAdjust="spacing" textLength="434" x="895.5" y="201.0332">annualInvestmentResults: computed&lt;InvestmentResult[] | undefined&gt;</text><line style="stroke:#181818;stroke-width:0.5;" x1="876.5" x2="1334.5" y1="208.1094" y2="208.1094"/></g><!--class HeaderComponent--><g id="elem_HeaderComponent"><rect codeLine="19" fill="#F1F1F1" height="48" id="HeaderComponent" rx="2.5" ry="2.5" style="stroke:#181818;stroke-width:0.5;" width="151" x="1371" y="159.5"/><ellipse cx="1386" cy="175.5" fill="#ADD1B2" rx="11" ry="11" style="stroke:#181818;stroke-width:1.0;"/><path d="M1388.7656,171.375 Q1388.9219,171.1563 1389.1094,171.0469 Q1389.2969,170.9375 1389.5156,170.9375 Q1389.8906,170.9375 1390.125,171.2031 Q1390.3594,171.4531 1390.3594,172.0625 L1390.3594,173.5156 Q1390.3594,174.125 1390.125,174.3906 Q1389.8906,174.6563 1389.5156,174.6563 Q1389.1719,174.6563 1388.9688,174.4531 Q1388.7656,174.2656 1388.6563,173.75 Q1388.6094,173.3906 1388.4219,173.2031 Q1388.0938,172.8281 1387.4844,172.6094 Q1386.875,172.3906 1386.25,172.3906 Q1385.4844,172.3906 1384.8438,172.7188 Q1384.2188,173.0469 1383.7188,173.7969 Q1383.2344,174.5469 1383.2344,175.5781 L1383.2344,176.6719 Q1383.2344,177.9063 1384.125,178.7344 Q1385.0156,179.5469 1386.6094,179.5469 Q1387.5469,179.5469 1388.2031,179.2969 Q1388.5938,179.1406 1389.0156,178.7031 Q1389.2813,178.4375 1389.4219,178.3594 Q1389.5781,178.2813 1389.7813,178.2813 Q1390.1094,178.2813 1390.3594,178.5469 Q1390.625,178.7969 1390.625,179.1406 Q1390.625,179.4844 1390.2813,179.8906 Q1389.7813,180.4688 1388.9844,180.7969 Q1387.9063,181.25 1386.6094,181.25 Q1385.0938,181.25 1383.8906,180.625 Q1382.9063,180.125 1382.2188,179.0625 Q1381.5313,177.9844 1381.5313,176.7031 L1381.5313,175.5469 Q1381.5313,174.2188 1382.1406,173.0781 Q1382.7656,171.9219 1383.8594,171.3125 Q1384.9531,170.6875 1386.1875,170.6875 Q1386.9219,170.6875 1387.5625,170.8594 Q1388.2188,171.0156 1388.7656,171.375 Z " fill="#000000"/><text fill="#000000" font-family="sans-serif" font-size="14" lengthAdjust="spacing" textLength="119" x="1400" y="181.2285">HeaderComponent</text><line style="stroke:#181818;stroke-width:0.5;" x1="1372" x2="1521" y1="191.5" y2="191.5"/><line style="stroke:#181818;stroke-width:0.5;" x1="1372" x2="1521" y1="199.5" y2="199.5"/></g><!--class InvestmentInput--><g id="elem_InvestmentInput"><rect codeLine="22" fill="#F1F1F1" height="118.4375" id="InvestmentInput" rx="2.5" ry="2.5" style="stroke:#181818;stroke-width:0.5;" width="193" x="435" y="614"/><ellipse cx="477.9" cy="630" fill="#ADD1B2" rx="11" ry="11" style="stroke:#181818;stroke-width:1.0;"/><path d="M480.6656,625.875 Q480.8219,625.6563 481.0094,625.5469 Q481.1969,625.4375 481.4156,625.4375 Q481.7906,625.4375 482.025,625.7031 Q482.2594,625.9531 482.2594,626.5625 L482.2594,628.0156 Q482.2594,628.625 482.025,628.8906 Q481.7906,629.1563 481.4156,629.1563 Q481.0719,629.1563 480.8688,628.9531 Q480.6656,628.7656 480.5563,628.25 Q480.5094,627.8906 480.3219,627.7031 Q479.9938,627.3281 479.3844,627.1094 Q478.775,626.8906 478.15,626.8906 Q477.3844,626.8906 476.7438,627.2188 Q476.1188,627.5469 475.6188,628.2969 Q475.1344,629.0469 475.1344,630.0781 L475.1344,631.1719 Q475.1344,632.4063 476.025,633.2344 Q476.9156,634.0469 478.5094,634.0469 Q479.4469,634.0469 480.1031,633.7969 Q480.4938,633.6406 480.9156,633.2031 Q481.1813,632.9375 481.3219,632.8594 Q481.4781,632.7813 481.6813,632.7813 Q482.0094,632.7813 482.2594,633.0469 Q482.525,633.2969 482.525,633.6406 Q482.525,633.9844 482.1813,634.3906 Q481.6813,634.9688 480.8844,635.2969 Q479.8063,635.75 478.5094,635.75 Q476.9938,635.75 475.7906,635.125 Q474.8063,634.625 474.1188,633.5625 Q473.4313,632.4844 473.4313,631.2031 L473.4313,630.0469 Q473.4313,628.7188 474.0406,627.5781 Q474.6656,626.4219 475.7594,625.8125 Q476.8531,625.1875 478.0875,625.1875 Q478.8219,625.1875 479.4625,625.3594 Q480.1188,625.5156 480.6656,625.875 Z " fill="#000000"/><text fill="#000000" font-family="sans-serif" font-size="14" lengthAdjust="spacing" textLength="99" x="498.1" y="635.7285">InvestmentInput</text><line style="stroke:#181818;stroke-width:0.5;" x1="436" x2="627" y1="646" y2="646"/><ellipse cx="446" cy="660.3047" fill="none" rx="3" ry="3" style="stroke:#038048;stroke-width:1.0;"/><text fill="#000000" font-family="sans-serif" font-size="14" lengthAdjust="spacing" textLength="156" x="455" y="664.5332">initialInvestment: number</text><ellipse cx="446" cy="677.9141" fill="none" rx="3" ry="3" style="stroke:#038048;stroke-width:1.0;"/><text fill="#000000" font-family="sans-serif" font-size="14" lengthAdjust="spacing" textLength="167" x="455" y="682.1426">annualInvestment: number</text><ellipse cx="446" cy="695.5234" fill="none" rx="3" ry="3" style="stroke:#038048;stroke-width:1.0;"/><text fill="#000000" font-family="sans-serif" font-size="14" lengthAdjust="spacing" textLength="156" x="455" y="699.752">expectedReturn: number</text><ellipse cx="446" cy="713.1328" fill="none" rx="3" ry="3" style="stroke:#038048;stroke-width:1.0;"/><text fill="#000000" font-family="sans-serif" font-size="14" lengthAdjust="spacing" textLength="108" x="455" y="717.3613">duration: number</text><line style="stroke:#181818;stroke-width:0.5;" x1="436" x2="627" y1="724.4375" y2="724.4375"/></g><!--class InvestmentResult--><g id="elem_InvestmentResult"><rect codeLine="29" fill="#F1F1F1" height="153.6563" id="InvestmentResult" rx="2.5" ry="2.5" style="stroke:#181818;stroke-width:0.5;" width="210" x="663.5" y="596"/><ellipse cx="710.25" cy="612" fill="#ADD1B2" rx="11" ry="11" style="stroke:#181818;stroke-width:1.0;"/><path d="M713.0156,607.875 Q713.1719,607.6563 713.3594,607.5469 Q713.5469,607.4375 713.7656,607.4375 Q714.1406,607.4375 714.375,607.7031 Q714.6094,607.9531 714.6094,608.5625 L714.6094,610.0156 Q714.6094,610.625 714.375,610.8906 Q714.1406,611.1563 713.7656,611.1563 Q713.4219,611.1563 713.2188,610.9531 Q713.0156,610.7656 712.9063,610.25 Q712.8594,609.8906 712.6719,609.7031 Q712.3438,609.3281 711.7344,609.1094 Q711.125,608.8906 710.5,608.8906 Q709.7344,608.8906 709.0938,609.2188 Q708.4688,609.5469 707.9688,610.2969 Q707.4844,611.0469 707.4844,612.0781 L707.4844,613.1719 Q707.4844,614.4063 708.375,615.2344 Q709.2656,616.0469 710.8594,616.0469 Q711.7969,616.0469 712.4531,615.7969 Q712.8438,615.6406 713.2656,615.2031 Q713.5313,614.9375 713.6719,614.8594 Q713.8281,614.7813 714.0313,614.7813 Q714.3594,614.7813 714.6094,615.0469 Q714.875,615.2969 714.875,615.6406 Q714.875,615.9844 714.5313,616.3906 Q714.0313,616.9688 713.2344,617.2969 Q712.1563,617.75 710.8594,617.75 Q709.3438,617.75 708.1406,617.125 Q707.1563,616.625 706.4688,615.5625 Q705.7813,614.4844 705.7813,613.2031 L705.7813,612.0469 Q705.7813,610.7188 706.3906,609.5781 Q707.0156,608.4219 708.1094,607.8125 Q709.2031,607.1875 710.4375,607.1875 Q711.1719,607.1875 711.8125,607.3594 Q712.4688,607.5156 713.0156,607.875 Z " fill="#000000"/><text fill="#000000" font-family="sans-serif" font-size="14" lengthAdjust="spacing" textLength="108" x="730.75" y="617.7285">InvestmentResult</text><line style="stroke:#181818;stroke-width:0.5;" x1="664.5" x2="872.5" y1="628" y2="628"/><ellipse cx="674.5" cy="642.3047" fill="none" rx="3" ry="3" style="stroke:#038048;stroke-width:1.0;"/><text fill="#000000" font-family="sans-serif" font-size="14" lengthAdjust="spacing" textLength="84" x="683.5" y="646.5332">year: number</text><ellipse cx="674.5" cy="659.9141" fill="none" rx="3" ry="3" style="stroke:#038048;stroke-width:1.0;"/><text fill="#000000" font-family="sans-serif" font-size="14" lengthAdjust="spacing" textLength="103" x="683.5" y="664.1426">interest: number</text><ellipse cx="674.5" cy="677.5234" fill="none" rx="3" ry="3" style="stroke:#038048;stroke-width:1.0;"/><text fill="#000000" font-family="sans-serif" font-size="14" lengthAdjust="spacing" textLength="160" x="683.5" y="681.752">valueEndOfYear: number</text><ellipse cx="674.5" cy="695.1328" fill="none" rx="3" ry="3" style="stroke:#038048;stroke-width:1.0;"/><text fill="#000000" font-family="sans-serif" font-size="14" lengthAdjust="spacing" textLength="167" x="683.5" y="699.3613">annualInvestment: number</text><ellipse cx="674.5" cy="712.7422" fill="none" rx="3" ry="3" style="stroke:#038048;stroke-width:1.0;"/><text fill="#000000" font-family="sans-serif" font-size="14" lengthAdjust="spacing" textLength="130" x="683.5" y="716.9707">totalInterest: number</text><ellipse cx="674.5" cy="730.3516" fill="none" rx="3" ry="3" style="stroke:#038048;stroke-width:1.0;"/><text fill="#000000" font-family="sans-serif" font-size="14" lengthAdjust="spacing" textLength="184" x="683.5" y="734.5801">totalAmountInvested: number</text><line style="stroke:#181818;stroke-width:0.5;" x1="664.5" x2="872.5" y1="741.6563" y2="741.6563"/></g><!--class AppComponentTemplate--><g id="elem_AppComponentTemplate"><rect codeLine="38" fill="#F1F1F1" height="100.8281" id="AppComponentTemplate" rx="2.5" ry="2.5" style="stroke:#181818;stroke-width:0.5;" width="170" x="1557.5" y="133"/><ellipse cx="1577" cy="149" fill="#ADD1B2" rx="11" ry="11" style="stroke:#181818;stroke-width:1.0;"/><path d="M1579.7656,144.875 Q1579.9219,144.6563 1580.1094,144.5469 Q1580.2969,144.4375 1580.5156,144.4375 Q1580.8906,144.4375 1581.125,144.7031 Q1581.3594,144.9531 1581.3594,145.5625 L1581.3594,147.0156 Q1581.3594,147.625 1581.125,147.8906 Q1580.8906,148.1563 1580.5156,148.1563 Q1580.1719,148.1563 1579.9688,147.9531 Q1579.7656,147.7656 1579.6563,147.25 Q1579.6094,146.8906 1579.4219,146.7031 Q1579.0938,146.3281 1578.4844,146.1094 Q1577.875,145.8906 1577.25,145.8906 Q1576.4844,145.8906 1575.8438,146.2188 Q1575.2188,146.5469 1574.7188,147.2969 Q1574.2344,148.0469 1574.2344,149.0781 L1574.2344,150.1719 Q1574.2344,151.4063 1575.125,152.2344 Q1576.0156,153.0469 1577.6094,153.0469 Q1578.5469,153.0469 1579.2031,152.7969 Q1579.5938,152.6406 1580.0156,152.2031 Q1580.2813,151.9375 1580.4219,151.8594 Q1580.5781,151.7813 1580.7813,151.7813 Q1581.1094,151.7813 1581.3594,152.0469 Q1581.625,152.2969 1581.625,152.6406 Q1581.625,152.9844 1581.2813,153.3906 Q1580.7813,153.9688 1579.9844,154.2969 Q1578.9063,154.75 1577.6094,154.75 Q1576.0938,154.75 1574.8906,154.125 Q1573.9063,153.625 1573.2188,152.5625 Q1572.5313,151.4844 1572.5313,150.2031 L1572.5313,149.0469 Q1572.5313,147.7188 1573.1406,146.5781 Q1573.7656,145.4219 1574.8594,144.8125 Q1575.9531,144.1875 1577.1875,144.1875 Q1577.9219,144.1875 1578.5625,144.3594 Q1579.2188,144.5156 1579.7656,144.875 Z " fill="#000000"/><text fill="#000000" font-family="sans-serif" font-size="14" lengthAdjust="spacing" textLength="128" x="1592" y="154.7285">app.component.html</text><line style="stroke:#181818;stroke-width:0.5;" x1="1558.5" x2="1726.5" y1="165" y2="165"/><ellipse cx="1568.5" cy="179.3047" fill="none" rx="3" ry="3" style="stroke:#038048;stroke-width:1.0;"/><text fill="#000000" font-family="sans-serif" font-size="14" lengthAdjust="spacing" textLength="74" x="1577.5" y="183.5332">app-header</text><ellipse cx="1568.5" cy="196.9141" fill="none" rx="3" ry="3" style="stroke:#038048;stroke-width:1.0;"/><text fill="#000000" font-family="sans-serif" font-size="14" lengthAdjust="spacing" textLength="93" x="1577.5" y="201.1426">app-user-input</text><ellipse cx="1568.5" cy="214.5234" fill="none" rx="3" ry="3" style="stroke:#038048;stroke-width:1.0;"/><text fill="#000000" font-family="sans-serif" font-size="14" lengthAdjust="spacing" textLength="144" x="1577.5" y="218.752">app-investment-results</text><line style="stroke:#181818;stroke-width:0.5;" x1="1558.5" x2="1726.5" y1="225.8281" y2="225.8281"/></g><!--class UserInputComponentTemplate--><g id="elem_UserInputComponentTemplate"><rect codeLine="44" fill="#F1F1F1" height="153.6563" id="UserInputComponentTemplate" rx="2.5" ry="2.5" style="stroke:#181818;stroke-width:0.5;" width="375" x="7" y="338"/><ellipse cx="106.25" cy="354" fill="#ADD1B2" rx="11" ry="11" style="stroke:#181818;stroke-width:1.0;"/><path d="M109.0156,349.875 Q109.1719,349.6563 109.3594,349.5469 Q109.5469,349.4375 109.7656,349.4375 Q110.1406,349.4375 110.375,349.7031 Q110.6094,349.9531 110.6094,350.5625 L110.6094,352.0156 Q110.6094,352.625 110.375,352.8906 Q110.1406,353.1563 109.7656,353.1563 Q109.4219,353.1563 109.2188,352.9531 Q109.0156,352.7656 108.9063,352.25 Q108.8594,351.8906 108.6719,351.7031 Q108.3438,351.3281 107.7344,351.1094 Q107.125,350.8906 106.5,350.8906 Q105.7344,350.8906 105.0938,351.2188 Q104.4688,351.5469 103.9688,352.2969 Q103.4844,353.0469 103.4844,354.0781 L103.4844,355.1719 Q103.4844,356.4063 104.375,357.2344 Q105.2656,358.0469 106.8594,358.0469 Q107.7969,358.0469 108.4531,357.7969 Q108.8438,357.6406 109.2656,357.2031 Q109.5313,356.9375 109.6719,356.8594 Q109.8281,356.7813 110.0313,356.7813 Q110.3594,356.7813 110.6094,357.0469 Q110.875,357.2969 110.875,357.6406 Q110.875,357.9844 110.5313,358.3906 Q110.0313,358.9688 109.2344,359.2969 Q108.1563,359.75 106.8594,359.75 Q105.3438,359.75 104.1406,359.125 Q103.1563,358.625 102.4688,357.5625 Q101.7813,356.4844 101.7813,355.2031 L101.7813,354.0469 Q101.7813,352.7188 102.3906,351.5781 Q103.0156,350.4219 104.1094,349.8125 Q105.2031,349.1875 106.4375,349.1875 Q107.1719,349.1875 107.8125,349.3594 Q108.4688,349.5156 109.0156,349.875 Z " fill="#000000"/><text fill="#000000" font-family="sans-serif" font-size="14" lengthAdjust="spacing" textLength="168" x="126.75" y="359.7285">user-input.component.html</text><line style="stroke:#181818;stroke-width:0.5;" x1="8" x2="381" y1="370" y2="370"/><ellipse cx="18" cy="384.3047" fill="none" rx="3" ry="3" style="stroke:#038048;stroke-width:1.0;"/><text fill="#000000" font-family="sans-serif" font-size="14" lengthAdjust="spacing" textLength="130" x="27" y="388.5332">button type="submit"</text><line style="stroke:#181818;stroke-width:0.5;" x1="8" x2="381" y1="395.6094" y2="395.6094"/><ellipse cx="18" cy="409.9141" fill="#84BE84" rx="3" ry="3" style="stroke:#038048;stroke-width:1.0;"/><text fill="#000000" font-family="sans-serif" font-size="14" lengthAdjust="spacing" textLength="188" x="27" y="414.1426">form (ngSubmit)="onSubmit()"</text><ellipse cx="18" cy="427.5234" fill="#84BE84" rx="3" ry="3" style="stroke:#038048;stroke-width:1.0;"/><text fill="#000000" font-family="sans-serif" font-size="14" lengthAdjust="spacing" textLength="338" x="27" y="431.752">input [(ngModel)]="investmentInput().initialInvestment"</text><ellipse cx="18" cy="445.1328" fill="#84BE84" rx="3" ry="3" style="stroke:#038048;stroke-width:1.0;"/><text fill="#000000" font-family="sans-serif" font-size="14" lengthAdjust="spacing" textLength="349" x="27" y="449.3613">input [(ngModel)]="investmentInput().annualInvestment"</text><ellipse cx="18" cy="462.7422" fill="#84BE84" rx="3" ry="3" style="stroke:#038048;stroke-width:1.0;"/><text fill="#000000" font-family="sans-serif" font-size="14" lengthAdjust="spacing" textLength="338" x="27" y="466.9707">input [(ngModel)]="investmentInput().expectedReturn"</text><ellipse cx="18" cy="480.3516" fill="#84BE84" rx="3" ry="3" style="stroke:#038048;stroke-width:1.0;"/><text fill="#000000" font-family="sans-serif" font-size="14" lengthAdjust="spacing" textLength="290" x="27" y="484.5801">input [(ngModel)]="investmentInput().duration"</text></g><!--class InvestmentResultsComponentTemplate--><g id="elem_InvestmentResultsComponentTemplate"><rect codeLine="53" fill="#F1F1F1" height="206.4844" id="InvestmentResultsComponentTemplate" rx="2.5" ry="2.5" style="stroke:#181818;stroke-width:0.5;" width="465" x="919" y="312"/><ellipse cx="1037.75" cy="328" fill="#ADD1B2" rx="11" ry="11" style="stroke:#181818;stroke-width:1.0;"/><path d="M1040.5156,323.875 Q1040.6719,323.6563 1040.8594,323.5469 Q1041.0469,323.4375 1041.2656,323.4375 Q1041.6406,323.4375 1041.875,323.7031 Q1042.1094,323.9531 1042.1094,324.5625 L1042.1094,326.0156 Q1042.1094,326.625 1041.875,326.8906 Q1041.6406,327.1563 1041.2656,327.1563 Q1040.9219,327.1563 1040.7188,326.9531 Q1040.5156,326.7656 1040.4063,326.25 Q1040.3594,325.8906 1040.1719,325.7031 Q1039.8438,325.3281 1039.2344,325.1094 Q1038.625,324.8906 1038,324.8906 Q1037.2344,324.8906 1036.5938,325.2188 Q1035.9688,325.5469 1035.4688,326.2969 Q1034.9844,327.0469 1034.9844,328.0781 L1034.9844,329.1719 Q1034.9844,330.4063 1035.875,331.2344 Q1036.7656,332.0469 1038.3594,332.0469 Q1039.2969,332.0469 1039.9531,331.7969 Q1040.3438,331.6406 1040.7656,331.2031 Q1041.0313,330.9375 1041.1719,330.8594 Q1041.3281,330.7813 1041.5313,330.7813 Q1041.8594,330.7813 1042.1094,331.0469 Q1042.375,331.2969 1042.375,331.6406 Q1042.375,331.9844 1042.0313,332.3906 Q1041.5313,332.9688 1040.7344,333.2969 Q1039.6563,333.75 1038.3594,333.75 Q1036.8438,333.75 1035.6406,333.125 Q1034.6563,332.625 1033.9688,331.5625 Q1033.2813,330.4844 1033.2813,329.2031 L1033.2813,328.0469 Q1033.2813,326.7188 1033.8906,325.5781 Q1034.5156,324.4219 1035.6094,323.8125 Q1036.7031,323.1875 1037.9375,323.1875 Q1038.6719,323.1875 1039.3125,323.3594 Q1039.9688,323.5156 1040.5156,323.875 Z " fill="#000000"/><text fill="#000000" font-family="sans-serif" font-size="14" lengthAdjust="spacing" textLength="219" x="1058.25" y="333.7285">investment-results.component.html</text><line style="stroke:#181818;stroke-width:0.5;" x1="920" x2="1383" y1="344" y2="344"/><ellipse cx="930" cy="358.3047" fill="none" rx="3" ry="3" style="stroke:#038048;stroke-width:1.0;"/><text fill="#000000" font-family="sans-serif" font-size="14" lengthAdjust="spacing" textLength="31" x="939" y="362.5332">table</text><ellipse cx="930" cy="375.9141" fill="none" rx="3" ry="3" style="stroke:#038048;stroke-width:1.0;"/><text fill="#000000" font-family="sans-serif" font-size="14" lengthAdjust="spacing" textLength="36" x="939" y="380.1426">thead</text><ellipse cx="930" cy="393.5234" fill="none" rx="3" ry="3" style="stroke:#038048;stroke-width:1.0;"/><text fill="#000000" font-family="sans-serif" font-size="14" lengthAdjust="spacing" textLength="104" x="939" y="397.752">td {{ data.year }}</text><ellipse cx="930" cy="411.1328" fill="none" rx="3" ry="3" style="stroke:#038048;stroke-width:1.0;"/><text fill="#000000" font-family="sans-serif" font-size="14" lengthAdjust="spacing" textLength="235" x="939" y="415.3613">td {{ data.interest | currency : 'EUR' }}</text><ellipse cx="930" cy="428.7422" fill="none" rx="3" ry="3" style="stroke:#038048;stroke-width:1.0;"/><text fill="#000000" font-family="sans-serif" font-size="14" lengthAdjust="spacing" textLength="292" x="939" y="432.9707">td {{ data.valueEndOfYear | currency : 'EUR' }}</text><ellipse cx="930" cy="446.3516" fill="none" rx="3" ry="3" style="stroke:#038048;stroke-width:1.0;"/><text fill="#000000" font-family="sans-serif" font-size="14" lengthAdjust="spacing" textLength="262" x="939" y="450.5801">td {{ data.totalInterest | currency : 'EUR' }}</text><ellipse cx="930" cy="463.9609" fill="none" rx="3" ry="3" style="stroke:#038048;stroke-width:1.0;"/><text fill="#000000" font-family="sans-serif" font-size="14" lengthAdjust="spacing" textLength="316" x="939" y="468.1895">td {{ data.totalAmountInvested | currency : 'EUR' }}</text><line style="stroke:#181818;stroke-width:0.5;" x1="920" x2="1383" y1="475.2656" y2="475.2656"/><ellipse cx="930" cy="489.5703" fill="#84BE84" rx="3" ry="3" style="stroke:#038048;stroke-width:1.0;"/><text fill="#000000" font-family="sans-serif" font-size="14" lengthAdjust="spacing" textLength="439" x="939" y="493.7988">@if (!annualInvestmentResults()) { "No investment results available." }</text><ellipse cx="930" cy="507.1797" fill="#84BE84" rx="3" ry="3" style="stroke:#038048;stroke-width:1.0;"/><text fill="#000000" font-family="sans-serif" font-size="14" lengthAdjust="spacing" textLength="335" x="939" y="511.4082">tbody *ngFor="let data of annualInvestmentResults()"</text></g><!--class HeaderComponentTemplate--><g id="elem_HeaderComponentTemplate"><rect codeLine="65" fill="#F1F1F1" height="100.8281" id="HeaderComponentTemplate" rx="2.5" ry="2.5" style="stroke:#181818;stroke-width:0.5;" width="283" x="1419" y="364.5"/><ellipse cx="1481.75" cy="380.5" fill="#ADD1B2" rx="11" ry="11" style="stroke:#181818;stroke-width:1.0;"/><path d="M1484.5156,376.375 Q1484.6719,376.1563 1484.8594,376.0469 Q1485.0469,375.9375 1485.2656,375.9375 Q1485.6406,375.9375 1485.875,376.2031 Q1486.1094,376.4531 1486.1094,377.0625 L1486.1094,378.5156 Q1486.1094,379.125 1485.875,379.3906 Q1485.6406,379.6563 1485.2656,379.6563 Q1484.9219,379.6563 1484.7188,379.4531 Q1484.5156,379.2656 1484.4063,378.75 Q1484.3594,378.3906 1484.1719,378.2031 Q1483.8438,377.8281 1483.2344,377.6094 Q1482.625,377.3906 1482,377.3906 Q1481.2344,377.3906 1480.5938,377.7188 Q1479.9688,378.0469 1479.4688,378.7969 Q1478.9844,379.5469 1478.9844,380.5781 L1478.9844,381.6719 Q1478.9844,382.9063 1479.875,383.7344 Q1480.7656,384.5469 1482.3594,384.5469 Q1483.2969,384.5469 1483.9531,384.2969 Q1484.3438,384.1406 1484.7656,383.7031 Q1485.0313,383.4375 1485.1719,383.3594 Q1485.3281,383.2813 1485.5313,383.2813 Q1485.8594,383.2813 1486.1094,383.5469 Q1486.375,383.7969 1486.375,384.1406 Q1486.375,384.4844 1486.0313,384.8906 Q1485.5313,385.4688 1484.7344,385.7969 Q1483.6563,386.25 1482.3594,386.25 Q1480.8438,386.25 1479.6406,385.625 Q1478.6563,385.125 1477.9688,384.0625 Q1477.2813,382.9844 1477.2813,381.7031 L1477.2813,380.5469 Q1477.2813,379.2188 1477.8906,378.0781 Q1478.5156,376.9219 1479.6094,376.3125 Q1480.7031,375.6875 1481.9375,375.6875 Q1482.6719,375.6875 1483.3125,375.8594 Q1483.9688,376.0156 1484.5156,376.375 Z " fill="#000000"/><text fill="#000000" font-family="sans-serif" font-size="14" lengthAdjust="spacing" textLength="149" x="1502.25" y="386.2285">header.component.html</text><line style="stroke:#181818;stroke-width:0.5;" x1="1420" x2="1701" y1="396.5" y2="396.5"/><ellipse cx="1430" cy="410.8047" fill="none" rx="3" ry="3" style="stroke:#038048;stroke-width:1.0;"/><text fill="#000000" font-family="sans-serif" font-size="14" lengthAdjust="spacing" textLength="45" x="1439" y="415.0332">header</text><ellipse cx="1430" cy="428.4141" fill="none" rx="3" ry="3" style="stroke:#038048;stroke-width:1.0;"/><text fill="#000000" font-family="sans-serif" font-size="14" lengthAdjust="spacing" textLength="257" x="1439" y="432.6426">img src="investment-calculator-logo.png"</text><ellipse cx="1430" cy="446.0234" fill="none" rx="3" ry="3" style="stroke:#038048;stroke-width:1.0;"/><text fill="#000000" font-family="sans-serif" font-size="14" lengthAdjust="spacing" textLength="156" x="1439" y="450.252">h1 Investment Calculator</text><line style="stroke:#181818;stroke-width:0.5;" x1="1420" x2="1701" y1="457.3281" y2="457.3281"/></g><!--link InvestmentService to InvestmentInput--><g id="link_InvestmentService_InvestmentInput"><path codeLine="71" d="M631.64,456.56 C611.98,498.86 583.5089,560.109 561.2089,608.089 " fill="none" id="InvestmentService-to-InvestmentInput" style="stroke:#181818;stroke-width:1.0;"/><polygon fill="#181818" points="558.68,613.53,566.1007,607.0544,560.7874,608.9958,558.8459,603.6825,558.68,613.53" style="stroke:#181818;stroke-width:1.0;"/><text fill="#000000" font-family="sans-serif" font-size="13" lengthAdjust="spacing" textLength="28" x="588.5" y="562.4951">uses</text></g><!--link InvestmentService to InvestmentResult--><g id="link_InvestmentService_InvestmentResult"><path codeLine="72" d="M669.2,456.56 C686.39,493.85 709.8089,544.6607 730.8589,590.3407 " fill="none" id="InvestmentService-to-InvestmentResult" style="stroke:#181818;stroke-width:1.0;"/><polygon fill="#181818" points="733.37,595.79,733.2362,585.9421,731.2774,591.249,725.9705,589.2902,733.37,595.79" style="stroke:#181818;stroke-width:1.0;"/><text fill="#000000" font-family="sans-serif" font-size="13" lengthAdjust="spacing" textLength="28" x="718.5" y="562.4951">uses</text></g><!--link AppComponent to AppComponentTemplate--><g id="link_AppComponent_AppComponentTemplate"><path codeLine="73" d="M1329.64,53.94 C1385.8,73.33 1468.76,103.09 1539.5,133 C1545.35,135.47 1545.8688,135.6371 1551.8888,138.3471 " fill="none" id="AppComponent-to-AppComponentTemplate" style="stroke:#181818;stroke-width:1.0;"/><polygon fill="#181818" points="1557.36,140.81,1550.7952,133.4681,1552.8007,138.7575,1547.5113,140.763,1557.36,140.81" style="stroke:#181818;stroke-width:1.0;"/><text fill="#000000" font-family="sans-serif" font-size="13" lengthAdjust="spacing" textLength="82" x="1458.5" y="99.4951">uses template</text></g><!--link UserInputComponent to UserInputComponentTemplate--><g id="link_UserInputComponent_UserInputComponentTemplate"><path codeLine="74" d="M570.03,225 C508.02,256.21 425.8694,297.5524 350.9294,335.2724 " fill="none" id="UserInputComponent-to-UserInputComponentTemplate" style="stroke:#181818;stroke-width:1.0;"/><polygon fill="#181818" points="345.57,337.97,355.4075,337.4966,350.0362,335.722,351.8107,330.3507,345.57,337.97" style="stroke:#181818;stroke-width:1.0;"/><text fill="#000000" font-family="sans-serif" font-size="13" lengthAdjust="spacing" textLength="82" x="491.5" y="278.4951">uses template</text></g><!--link InvestmentResultsComponent to InvestmentResultsComponentTemplate--><g id="link_InvestmentResultsComponent_InvestmentResultsComponentTemplate"><path codeLine="75" d="M1111.99,216.89 C1116.98,241.79 1122.98,271.7372 1129.86,306.0372 " fill="none" id="InvestmentResultsComponent-to-InvestmentResultsComponentTemplate" style="stroke:#181818;stroke-width:1.0;"/><polygon fill="#181818" points="1131.04,311.92,1133.1919,302.3091,1130.0567,307.0176,1125.3481,303.8824,1131.04,311.92" style="stroke:#181818;stroke-width:1.0;"/><text fill="#000000" font-family="sans-serif" font-size="13" lengthAdjust="spacing" textLength="82" x="1125.5" y="278.4951">uses template</text></g><!--link HeaderComponent to HeaderComponentTemplate--><g id="link_HeaderComponent_HeaderComponentTemplate"><path codeLine="76" d="M1458.06,207.77 C1476.17,244.23 1508.9905,310.3066 1533.0605,358.7566 " fill="none" id="HeaderComponent-to-HeaderComponentTemplate" style="stroke:#181818;stroke-width:1.0;"/><polygon fill="#181818" points="1535.73,364.13,1535.308,354.2902,1533.5054,359.6521,1528.1434,357.8495,1535.73,364.13" style="stroke:#181818;stroke-width:1.0;"/><text fill="#000000" font-family="sans-serif" font-size="13" lengthAdjust="spacing" textLength="82" x="1494.5" y="278.4951">uses template</text></g><!--link AppComponent to HeaderComponent--><g id="link_AppComponent_HeaderComponent"><path codeLine="78" d="M1292.54,55.19 C1326.74,83.47 1379.5863,127.1662 1413.8063,155.4662 " fill="none" id="AppComponent-to-HeaderComponent" style="stroke:#181818;stroke-width:1.0;"/><polygon fill="#181818" points="1418.43,159.29,1414.0437,150.4718,1414.5769,156.1035,1408.9453,156.6368,1418.43,159.29" style="stroke:#181818;stroke-width:1.0;"/><text fill="#000000" font-family="sans-serif" font-size="13" lengthAdjust="spacing" textLength="43" x="1351.5" y="99.4951">imports</text></g><!--link AppComponent to UserInputComponent--><g id="link_AppComponent_UserInputComponent"><path codeLine="79" d="M1199.37,47.96 C1103.31,71.51 927.0275,114.7217 798.9975,146.1017 " fill="none" id="AppComponent-to-UserInputComponent" style="stroke:#181818;stroke-width:1.0;"/><polygon fill="#181818" points="793.17,147.53,802.8635,149.2725,798.0263,146.3397,800.9591,141.5025,793.17,147.53" style="stroke:#181818;stroke-width:1.0;"/><text fill="#000000" font-family="sans-serif" font-size="13" lengthAdjust="spacing" textLength="43" x="1032.5" y="99.4951">imports</text></g><!--link AppComponent to InvestmentResultsComponent--><g id="link_AppComponent_InvestmentResultsComponent"><path codeLine="80" d="M1240,55.19 C1213.09,80.66 1174.0279,117.6359 1143.8279,146.2159 " fill="none" id="AppComponent-to-InvestmentResultsComponent" style="stroke:#181818;stroke-width:1.0;"/><polygon fill="#181818" points="1139.47,150.34,1148.7563,147.0591,1143.1016,146.9032,1143.2574,141.2485,1139.47,150.34" style="stroke:#181818;stroke-width:1.0;"/><text fill="#000000" font-family="sans-serif" font-size="13" lengthAdjust="spacing" textLength="43" x="1205.5" y="99.4951">imports</text></g><!--link UserInputComponent to InvestmentService--><g id="link_UserInputComponent_InvestmentService"><path codeLine="81" d="M650.5,225 C650.5,266.69 650.5,325.3 650.5,367.13 " fill="none" id="UserInputComponent-to-InvestmentService" style="stroke:#181818;stroke-width:1.0;"/><polygon fill="#181818" points="650.5,373.13,654.5,364.13,650.5,368.13,646.5,364.13,650.5,373.13" style="stroke:#181818;stroke-width:1.0;"/><text fill="#000000" font-family="sans-serif" font-size="13" lengthAdjust="spacing" textLength="28" x="651.5" y="278.4951">uses</text></g><!--link InvestmentResultsComponent to InvestmentService--><g id="link_InvestmentResultsComponent_InvestmentService"><path codeLine="82" d="M1041.76,216.65 C960.43,257.67 825.0872,325.9381 736.4172,370.6581 " fill="none" id="InvestmentResultsComponent-to-InvestmentService" style="stroke:#181818;stroke-width:1.0;"/><polygon fill="#181818" points="731.06,373.36,740.8971,372.8787,735.5244,371.1084,737.2946,365.7357,731.06,373.36" style="stroke:#181818;stroke-width:1.0;"/><text fill="#000000" font-family="sans-serif" font-size="13" lengthAdjust="spacing" textLength="28" x="946.5" y="278.4951">uses</text></g><!--SRC=[ZLLDZvim4BtdLqovBBG2gLVKhBgAjkeUsagxtKErseC34sB9sCZOKQCq_xtOWG0s9Bd1V3w_UMDdZDGrFF4Trgf4hbvGxcY6S5W0V2ASQy9wvpFMcgawXPeMdB0lhkVj7Vw1vZbkACVytfGGV4LOfXbHwDK9wTdon2kjqW4EQuXIs0cQBuwBHMPnFbJLIfILu4r40_5iVwrHseoXj-dkDV20MtkBz4MlIwf2hwi7tEaoIrFMn6c5-LMYpgs-8ybHJfxHmTmTa2ewx9q2r-KQvHIkeG__LfWrq9vHQSc7dbnBegZeRRCyd23iaSXXFkKAPHCtjEq8q_Z8yr-RFqxq9OnAAEFoord7GocquS9aOkwZ3KXL9Ld7PB9L9Gk0Z3Nq6ylAIBETOrN5Mpk0xaytkegfeRkpz8gAvMdCWuvz-5HZNwJZzXiXImXvSP9Xj0nwHGOdOitOtvg87o975hql0qVVOPHuWhWzrHt5xPbZCTsUrqdDPgorKeA3sbUu36fxy630hK_y5CVpgphc-YlTGFXXPd73A88313y5z4sXRGfaHoWZQuP904ShHlDZFunsxCTQv7luo8jlGYu3XWfoeWY83Smsj0oe70u76vkOfOBZqR5sgzLS7fcM4dcsXnJk7b-Vx_pWySxTb39QkDipnfiuazTFyhHYKzDpRh_noFhDf6K1jSo6YegpzfKHCcQY44d52ylfzlD04x0wHnay_giNn_VUFPj2izRrrU3sIcoZHm-L2PoyTKx1eDh_nSGpPd8lN1nkXGjFrHJS-df5zqKoPURcvERwDBZLKg3DfrGJZ4sGSI7wmi7xh1b-_T5wCx_2ffFt7m00]--></g></svg>